STARTFONT 2.1
FONT -gbdfed-monument-Normal-R-Normal--10-70-20-20-M-10-FontSpecific-0
SIZE 7 20 20
FONTBOUNDINGBOX 15 8 0 0
STARTPROPERTIES 11
POINT_SIZE 70
PIXEL_SIZE 10
RESOLUTION_X 20
RESOLUTION_Y 20
FONT_ASCENT 8
FONT_DESCENT 2
AVERAGE_WIDTH 10
SPACING "P"
FAMILY_NAME "monument"
WEIGHT_NAME "Normal"
_GBDFED_INFO "Edited with gbdfed 1.6."
ENDPROPERTIES
CHARS 64
STARTCHAR char32
ENCODING 32
SWIDTH 4114 0
DWIDTH 8 0
BBX 0 0 0 0
BITMAP
ENDCHAR
STARTCHAR char33
ENCODING 33
SWIDTH 4114 0
DWIDTH 8 0
BBX 2 8 2 0
BITMAP
C0
C0
C0
C0
C0
00
C0
C0
ENDCHAR
STARTCHAR char34
ENCODING 34
SWIDTH 4114 0
DWIDTH 8 0
BBX 4 4 1 4
BITMAP
60
90
90
60
ENDCHAR
STARTCHAR char35
ENCODING 35
SWIDTH 8228 0
DWIDTH 16 0
BBX 13 8 1 0
BITMAP
0200
0200
4010
2720
0F80
1FC0
DFD8
1FC0
ENDCHAR
STARTCHAR char35
ENCODING 36
SWIDTH 8228 0
DWIDTH 16 0
BBX 14 8 0 0
BITMAP
0080
0884
0408
01C0
78E0
FF6C
FFA0
FF80
ENDCHAR
STARTCHAR char37
ENCODING 37
SWIDTH 4114 0
DWIDTH 8 0
BBX 6 8 0 0
BITMAP
C0
CC
1C
38
70
E0
CC
0C
ENDCHAR
STARTCHAR char35
ENCODING 38
SWIDTH 8228 0
DWIDTH 16 0
BBX 14 8 0 0
BITMAP
0E00
1F80
07F8
78FC
FF7C
FFBC
FFB8
7F00
ENDCHAR
STARTCHAR char39
ENCODING 39
SWIDTH 8228 0
DWIDTH 16 0
BBX 14 8 0 0
BITMAP
E38C
1C70
E38C
1C70
E38C
1C70
E38C
1C70
ENDCHAR
STARTCHAR char35
ENCODING 40
SWIDTH 8228 0
DWIDTH 16 0
BBX 14 8 0 0
BITMAP
07C0
78F0
FF7C
FFBC
0000
7BF8
0000
7F78
ENDCHAR
STARTCHAR char35
ENCODING 41
SWIDTH 8228 0
DWIDTH 16 0
BBX 14 8 0 0
BITMAP
07C0
78F0
FF7C
FFBC
0000
2490
4920
9240
ENDCHAR
STARTCHAR char42
ENCODING 42
SWIDTH 4114 0
DWIDTH 8 0
BBX 6 7 0 1
BITMAP
20
A8
70
FC
70
A8
20
ENDCHAR
STARTCHAR char35
ENCODING 43
SWIDTH 8228 0
DWIDTH 16 0
BBX 14 8 0 0
BITMAP
07C8
7FD0
FFB0
FF7C
0018
24B0
4920
9240
ENDCHAR
STARTCHAR char35
ENCODING 44
SWIDTH 11314 0
DWIDTH 22 0
BBX 14 8 0 0
BITMAP
3C00
7FC0
FF00
FF48
7E30
00FC
0030
0048
ENDCHAR
STARTCHAR char45
ENCODING 45
SWIDTH 4114 0
DWIDTH 8 0
BBX 6 2 0 3
BITMAP
FC
FC
ENDCHAR
STARTCHAR char46
ENCODING 46
SWIDTH 4114 0
DWIDTH 8 0
BBX 2 2 2 0
BITMAP
C0
C0
ENDCHAR
STARTCHAR char47
ENCODING 47
SWIDTH 4114 0
DWIDTH 8 0
BBX 5 8 0 0
BITMAP
18
18
38
30
70
60
E0
C0
ENDCHAR
STARTCHAR char48
ENCODING 48
SWIDTH 4114 0
DWIDTH 8 0
BBX 6 8 0 0
BITMAP
FC
FC
CC
CC
CC
CC
FC
FC
ENDCHAR
STARTCHAR char49
ENCODING 49
SWIDTH 4114 0
DWIDTH 8 0
BBX 6 8 0 0
BITMAP
F0
F0
30
30
30
30
FC
FC
ENDCHAR
STARTCHAR char50
ENCODING 50
SWIDTH 4114 0
DWIDTH 8 0
BBX 6 8 0 0
BITMAP
FC
FC
0C
FC
FC
C0
FC
FC
ENDCHAR
STARTCHAR char51
ENCODING 51
SWIDTH 4114 0
DWIDTH 8 0
BBX 6 8 0 0
BITMAP
FC
FC
0C
7C
7C
0C
FC
FC
ENDCHAR
STARTCHAR char52
ENCODING 52
SWIDTH 4114 0
DWIDTH 8 0
BBX 6 8 0 0
BITMAP
CC
CC
CC
FC
FC
0C
0C
0C
ENDCHAR
STARTCHAR char53
ENCODING 53
SWIDTH 4114 0
DWIDTH 8 0
BBX 6 8 0 0
BITMAP
FC
FC
C0
FC
FC
0C
FC
FC
ENDCHAR
STARTCHAR char54
ENCODING 54
SWIDTH 4114 0
DWIDTH 8 0
BBX 6 8 0 0
BITMAP
FC
FC
C0
FC
FC
CC
FC
FC
ENDCHAR
STARTCHAR char55
ENCODING 55
SWIDTH 4114 0
DWIDTH 8 0
BBX 6 8 0 0
BITMAP
FC
FC
0C
0C
0C
0C
0C
0C
ENDCHAR
STARTCHAR char56
ENCODING 56
SWIDTH 4114 0
DWIDTH 8 0
BBX 6 8 0 0
BITMAP
FC
FC
CC
FC
FC
CC
FC
FC
ENDCHAR
STARTCHAR char57
ENCODING 57
SWIDTH 4114 0
DWIDTH 8 0
BBX 6 8 0 0
BITMAP
FC
FC
CC
FC
FC
0C
FC
FC
ENDCHAR
STARTCHAR char58
ENCODING 58
SWIDTH 4114 0
DWIDTH 8 0
BBX 2 6 2 0
BITMAP
C0
C0
00
00
C0
C0
ENDCHAR
STARTCHAR char59
ENCODING 59
SWIDTH 4114 0
DWIDTH 8 0
BBX 6 8 0 0
BITMAP
30
78
84
84
84
84
84
FC
ENDCHAR
STARTCHAR char59
ENCODING 60
SWIDTH 4114 0
DWIDTH 8 0
BBX 6 8 0 0
BITMAP
30
78
84
84
84
84
FC
FC
ENDCHAR
STARTCHAR char59
ENCODING 61
SWIDTH 4114 0
DWIDTH 8 0
BBX 6 8 0 0
BITMAP
30
78
84
84
84
FC
FC
FC
ENDCHAR
STARTCHAR char59
ENCODING 62
SWIDTH 4114 0
DWIDTH 8 0
BBX 6 8 0 0
BITMAP
30
78
84
84
FC
FC
FC
FC
ENDCHAR
STARTCHAR char59
ENCODING 63
SWIDTH 4114 0
DWIDTH 8 0
BBX 6 8 0 0
BITMAP
30
78
84
FC
FC
FC
FC
FC
ENDCHAR
STARTCHAR char59
ENCODING 64
SWIDTH 4114 0
DWIDTH 8 0
BBX 6 8 0 0
BITMAP
30
78
FC
FC
FC
FC
FC
FC
ENDCHAR
STARTCHAR char65
ENCODING 65
SWIDTH 4114 0
DWIDTH 8 0
BBX 6 8 0 0
BITMAP
78
FC
CC
CC
FC
FC
CC
CC
ENDCHAR
STARTCHAR char66
ENCODING 66
SWIDTH 4114 0
DWIDTH 8 0
BBX 6 8 0 0
BITMAP
F8
FC
CC
FC
FC
CC
FC
F8
ENDCHAR
STARTCHAR char67
ENCODING 67
SWIDTH 4114 0
DWIDTH 8 0
BBX 6 8 0 0
BITMAP
7C
FC
C0
C0
C0
C0
FC
7C
ENDCHAR
STARTCHAR char68
ENCODING 68
SWIDTH 4114 0
DWIDTH 8 0
BBX 6 8 0 0
BITMAP
F8
FC
CC
CC
CC
CC
FC
F8
ENDCHAR
STARTCHAR char69
ENCODING 69
SWIDTH 4114 0
DWIDTH 8 0
BBX 6 8 0 0
BITMAP
FC
FC
C0
F8
F8
C0
FC
FC
ENDCHAR
STARTCHAR char70
ENCODING 70
SWIDTH 4114 0
DWIDTH 8 0
BBX 6 8 0 0
BITMAP
7C
FC
C0
F8
F8
C0
C0
C0
ENDCHAR
STARTCHAR char71
ENCODING 71
SWIDTH 4114 0
DWIDTH 8 0
BBX 6 8 0 0
BITMAP
7C
FC
C0
DC
DC
CC
FC
78
ENDCHAR
STARTCHAR char72
ENCODING 72
SWIDTH 4114 0
DWIDTH 8 0
BBX 6 8 0 0
BITMAP
CC
CC
CC
FC
FC
CC
CC
CC
ENDCHAR
STARTCHAR char73
ENCODING 73
SWIDTH 4114 0
DWIDTH 8 0
BBX 6 8 0 0
BITMAP
FC
FC
30
30
30
30
FC
FC
ENDCHAR
STARTCHAR char74
ENCODING 74
SWIDTH 4114 0
DWIDTH 8 0
BBX 6 8 0 0
BITMAP
FC
FC
0C
0C
CC
CC
FC
7C
ENDCHAR
STARTCHAR char75
ENCODING 75
SWIDTH 4114 0
DWIDTH 8 0
BBX 6 8 0 0
BITMAP
CC
DC
F8
F0
F8
DC
CC
CC
ENDCHAR
STARTCHAR char76
ENCODING 76
SWIDTH 4114 0
DWIDTH 8 0
BBX 6 8 0 0
BITMAP
C0
C0
C0
C0
C0
C0
FC
FC
ENDCHAR
STARTCHAR char77
ENCODING 77
SWIDTH 4114 0
DWIDTH 8 0
BBX 6 8 0 0
BITMAP
6C
FC
FC
D4
D4
C4
C4
C4
ENDCHAR
STARTCHAR char78
ENCODING 78
SWIDTH 4114 0
DWIDTH 8 0
BBX 6 8 0 0
BITMAP
CC
EC
EC
FC
DC
DC
CC
CC
ENDCHAR
STARTCHAR char79
ENCODING 79
SWIDTH 4114 0
DWIDTH 8 0
BBX 6 8 0 0
BITMAP
78
FC
CC
CC
CC
CC
FC
78
ENDCHAR
STARTCHAR char80
ENCODING 80
SWIDTH 4114 0
DWIDTH 8 0
BBX 6 8 0 0
BITMAP
F8
FC
CC
FC
F8
C0
C0
C0
ENDCHAR
STARTCHAR char81
ENCODING 81
SWIDTH 4114 0
DWIDTH 8 0
BBX 6 8 0 0
BITMAP
78
FC
CC
CC
CC
FC
78
1C
ENDCHAR
STARTCHAR char82
ENCODING 82
SWIDTH 4114 0
DWIDTH 8 0
BBX 6 8 0 0
BITMAP
F8
FC
CC
FC
F8
CC
CC
CC
ENDCHAR
STARTCHAR char83
ENCODING 83
SWIDTH 4114 0
DWIDTH 8 0
BBX 6 8 0 0
BITMAP
7C
FC
C0
78
7C
0C
FC
F8
ENDCHAR
STARTCHAR char84
ENCODING 84
SWIDTH 4114 0
DWIDTH 8 0
BBX 6 8 0 0
BITMAP
FC
FC
30
30
30
30
30
30
ENDCHAR
STARTCHAR char85
ENCODING 85
SWIDTH 4114 0
DWIDTH 8 0
BBX 6 8 0 0
BITMAP
CC
CC
CC
CC
CC
CC
FC
7C
ENDCHAR
STARTCHAR char86
ENCODING 86
SWIDTH 4114 0
DWIDTH 8 0
BBX 6 8 0 0
BITMAP
CC
CC
CC
CC
CC
FC
78
30
ENDCHAR
STARTCHAR char87
ENCODING 87
SWIDTH 4114 0
DWIDTH 8 0
BBX 6 8 0 0
BITMAP
C4
C4
C4
D4
D4
FC
FC
6C
ENDCHAR
STARTCHAR char88
ENCODING 88
SWIDTH 4114 0
DWIDTH 8 0
BBX 6 8 0 0
BITMAP
CC
CC
EC
70
38
DC
CC
CC
ENDCHAR
STARTCHAR char89
ENCODING 89
SWIDTH 4114 0
DWIDTH 8 0
BBX 6 8 0 0
BITMAP
CC
CC
FC
78
30
30
30
30
ENDCHAR
STARTCHAR char90
ENCODING 90
SWIDTH 4114 0
DWIDTH 8 0
BBX 6 8 0 0
BITMAP
FC
FC
1C
38
70
E0
FC
FC
ENDCHAR
STARTCHAR char91
ENCODING 91
SWIDTH 4114 0
DWIDTH 8 0
BBX 6 8 0 0
BITMAP
10
20
60
FC
18
30
20
40
ENDCHAR
STARTCHAR char92
ENCODING 92
SWIDTH 4114 0
DWIDTH 8 0
BBX 7 7 0 0
BITMAP
10
38
28
6C
6C
FE
EE
ENDCHAR
STARTCHAR char93
ENCODING 93
SWIDTH 4114 0
DWIDTH 8 0
BBX 7 7 0 0
BITMAP
6C
FE
FE
FE
7C
38
10
ENDCHAR
STARTCHAR char95
ENCODING 95
SWIDTH 4114 0
DWIDTH 8 0
BBX 7 6 0 0
BITMAP
E0
F0
D0
FC
82
FE
ENDCHAR
STARTCHAR char96
ENCODING 96
SWIDTH 4114 0
DWIDTH 8 0
BBX 6 7 0 0
BITMAP
B0
78
38
58
EC
04
30
ENDCHAR
ENDFONT
